<svg viewBox="0 0 66.166 65.804" xmlns="http://www.w3.org/2000/svg"><path d="m33.021 1.5767a31.325 31.325 0 00-31.264 31.325 31.325 31.325 0 0031.325 31.325 31.325 31.325 0 0031.325-31.325 31.325 31.325 0 00-31.325-31.325 31.325 31.325 0 00-.0615 0zm.03101 2.4546a28.871 28.871 0 01.000529 0 28.871 28.871 0 01.02997 0 28.871 28.871 0 0128.871 28.871 28.871 28.871 0 01-28.871 28.871 28.871 28.871 0 01-28.871-28.871 28.871 28.871 0 0128.84-28.871zm20.146 9.6625-23.416 15.752-16.816 22.665 23.416-15.752z" fill="#2bb673"/></svg>
