<svg viewBox="0 0 87.419 81.967" xmlns="http://www.w3.org/2000/svg"><path d="m55.854 0a.138.138 0 00-.041016.0058594c-.005 0-.013531.0077656-.019531.0097656s-.018344.011625-.027344.015625l.013672-.025391c-9.735 5.7-13.038 16.251-13.342 21.529.452-.031.90328-.068359 1.3633-.068359a19.56 19.56 0 0116.98 9.916 13.38 13.38 0 00-9.3438-2.2695c13.94 6.966 10.198 30.972-9.1191 30.066a17.235 17.235 0 01-5.043-.97266c-.37933-.14267-.75934-.2988-1.1387-.4668-.219-.099-.4383-.19855-.6543-.31055l.027344.015624c-.188-.09-.37645-.18392-.56445-.28125.181.087001.35111.18262.53711.26563-4.729-2.446-8.6409-7.0715-9.1289-12.686 0 0 1.7895-6.666 12.811-6.666 1.191 0 4.5962-3.3251 4.6602-4.2891-.015-.315-6.7587-2.9988-9.3887-5.5898-1.405-1.385-2.0731-2.0527-2.6641-2.5527a11.587 11.587 0 00-1-.75781 17.968 17.968 0 01-.10938-9.4746 28.705 28.705 0 00-9.3281 7.2109h-.017578c-1.536-1.947-1.4278-8.368-1.3398-9.709a6.928 6.928 0 00-1.2949.6875 28.225 28.225 0 00-3.7871 3.2461 33.845 33.845 0 00-3.623 4.3457 32.733 32.733 0 00-5.2012 11.742l-.050781.25586c-.073.341-.33586 2.0489-.38086 2.4199 0 .029-.0067656.056938-.0097657.085938a36.937 36.937 0 00-.62891 5.3418v.20117a38.759 38.759 0 0076.953 6.5547c.065-.5.11973-.995.17773-1.5a39.857 39.857 0 00-2.5156-19.471c-1.684-4.052-5.0984-8.4256-7.7734-9.8086a40.266 40.266 0 013.9238 11.764l.007813.064453c-4.382-10.925-11.814-15.33-17.883-24.922-.307-.485-.61311-.97138-.91211-1.4844-.171-.293-.30874-.55583-.42774-.79883a7.053 7.053 0 01-.57812-1.5352.1.1 0 00-.08789-.099609.138.138 0 00-.03125-.0058594zm19.922 28.818.007812.041016-.007812-.003906v-.03711z" fill="#2bb673"/></svg>
