<svg viewBox="0 0 66.166 65.804" xmlns="http://www.w3.org/2000/svg"><path d="m33.02 1.57a31.325 31.325 0 00-31.264 31.325 31.325 31.325 0 0031.325 31.325 31.325 31.325 0 0031.325-31.325 31.325 31.325 0 00-31.325-31.325 31.325 31.325 0 00-.0615 0zm.031 2.4546a28.871 28.871 0 01.00051 0 28.871 28.871 0 01.03 0 28.871 28.871 0 0128.871 28.871 28.871 28.871 0 01-28.871 28.871 28.871 28.871 0 01-28.871-28.871 28.871 28.871 0 0128.84-28.871zm.0305 1.5058c-.23319 0-.42065.18745-.42065.42065v4.8555c0 .2332.18746.42065.42065.42065.2332 0 .42116-.18745.42116-.42065v-4.8555c0-.2332-.18796-.42065-.42116-.42065zm-2.8391.17415c-.23194.0242-.39939.23056-.37517.4625l.21239 2.0314c.0242.23194.23059.39888.46251.37466.23194-.0242.39888-.23057.37465-.46251l-.21187-2.0309c-.0212-.20295-.18154-.35622-.37672-.37517-.0279-.003-.0568-.003-.0858 0zm5.6121.002c-.19519.0188-.35587.17225-.37723.37517l-.21343 2.0314c-.0244.23192.14273.43811.37466.4625.23191.0244.4381-.14273.4625-.37465l.21394-2.0309c.0244-.23192-.14274-.43813-.37465-.46251-.029-.003-.0579-.003-.0858-.00051zm-8.355.40824c-.028.00022-.0568.003-.0853.009-.22814.0483-.37283.27054-.32453.49868l1.0056 4.7501c.0483.22814.27105.37282.49919.32453.22814-.0483.37282-.27054.32453-.49868l-1.0056-4.7501c-.0423-.19963-.21784-.33536-.41393-.33383zm11.184.004c-.19609-.002-.37205.13424-.41444.33383l-1.0087 4.7491c-.0485.22811.0959.45073.32401.49919.22811.0485.45075-.0964.4992-.32452l1.0092-4.7491c.0485-.2281-.0965-.45074-.32453-.49919-.0285-.006-.0568-.009-.0847-.009zm-13.883.75706c-.0545-.005-.11095.001-.1664.0196-.22178.0721-.34233.30842-.27026.5302l.63096 1.9425c.0721.22179.30894.34233.53072.27027.22179-.0721.34234-.30894.27027-.53072l-.63149-1.942c-.054-.16634-.20032-.276-.3638-.2899zm16.567.001c-.16348.0139-.30974.12357-.36381.2899l-.63148 1.942c-.0721.22177.0485.45811.27026.5302.22178.0721.4581-.048.53021-.26976l.63148-1.9425c.0721-.22178-.0485-.45811-.27027-.5302-.0554-.018-.11191-.0242-.16639-.0196zm-19.237.97617c-.0547.001-.11003.013-.1633.0367-.21298.0947-.30814.34243-.21342.55552l1.972 4.4364c.0947.21308.34243.30866.55552.21394.21298-.0947.30814-.34243.21342-.55552l-1.972-4.4369c-.071-.15983-.22818-.25329-.39222-.25011zm21.937.015c-.16403-.003-.32149.0899-.39274.2496l-1.9782 4.4338c-.095.21296-5e-5.46103.21291.55604.21297.095.46102 5e-5.55604-.21291l1.9782-4.4338c.095-.21297 6e-5-.46103-.2129-.55604-.0532-.0237-.10862-.0355-.1633-.0367zm-24.415 1.296c-.0808-.006-.16405.012-.23978.0558-.20196.1166-.27058.37269-.15399.57464l1.0211 1.7689c.1166.20196.37269.27059.57465.15399.20195-.1166.2711-.37268.15451-.57464l-1.0216-1.7689c-.0729-.12623-.20016-.20039-.33486-.20981zm26.859 0c-.13468.009-.262.0836-.33487.20981l-1.0216 1.7684c-.1166.20196-.0474.45856.15451.57516.20196.1166.45805.048.57465-.15399l1.0211-1.7689c.1166-.20195.048-.45804-.15399-.57464-.0757-.0437-.15896-.0614-.23978-.0558zm-29.265 1.5007c-.081.003-.16227.0288-.23306.0801-.18875.13693-.23052.39932-.0935.58808l2.851 3.93c.13693.18876.39932.23043.58808.0935s.23052-.39932.0935-.58808l-2.851-3.93c-.0856-.11798-.22008-.17825-.35501-.17364zm31.701.0212c-.13493-.005-.26926.0558-.35501.17363l-2.8562 3.9259c-.1372.18857-.0961.45089.0925.58808.18858.13718.45089.096.58808-.0925l2.8562-3.9264c.13718-.18858.096-.45037-.0925-.58756-.0707-.0514-.1521-.0782-.23306-.0811zm-33.852 1.7823c-.10744-.006-.21719.03-.30385.108-.17332.15602-.18706.42096-.031.59428l1.3663 1.5183c.15601.17332.42095.18706.59427.031.17332-.15602.18759-.42096.0315-.59428l-1.3663-1.5177c-.078-.0867-.18348-.13388-.29094-.13953zm35.976.003c-.10745.006-.21292.0524-.29094.13901l-1.3663 1.5177c-.15606.1733-.14233.43875.031.59479.17329.15604.43824.14173.59428-.0315l1.3668-1.5172c.15605-.17331.14172-.43877-.0315-.5948-.0867-.078-.19589-.11363-.30334-.108zm2.126 1.216-23.416 15.752-13.217 17.814c-.0688.0151-.13533.046-.19171.0966l-3.6106 3.2458c-.17342.15589-.18795.42137-.032.5948.15589.17342.42137.18742.5948.0315l.88573-.79581-1.2449 1.6774 23.416-15.752 13.215-17.813c.0695-.015.13646-.0461.19327-.0971l3.6106-3.2458c.17341-.1559.18794-.42085.032-.59428-.078-.0867-.18349-.13381-.29093-.13953-.10745-.006-.21715.0301-.30386.10801l-.89039.80047zm-40.163.76119c-.10745.006-.21293.0524-.29094.13901-.15602.17332-.14174.43878.0315.5948l3.608 3.2479c.17332.15603.43879.14226.5948-.031.15603-.17331.14235-.43825-.031-.59427l-3.6091-3.2484c-.0867-.078-.19588-.11365-.30334-.108zm-1.7141 2.204c-.13494-.005-.26987.0558-.35553.17363-.13707.18866-.0952.45101.0935.58808l1.6521 1.2004c.18866.13708.45101.0957.58808-.093.13708-.18866.0956-.45101-.093-.58808l-1.6526-1.2004c-.0707-.0514-.15159-.0777-.23255-.0806zm43.535.0155c-.081.003-.16228.0287-.23306.0801l-1.6526 1.1994c-.18875.13694-.23043.39932-.0935.58808.13695.18875.39881.23044.58756.0935l1.6531-1.1994c.18875-.13694.23044-.39932.0935-.58807-.0856-.11797-.22009-.17826-.35502-.17364zm-45.137 2.3358c-.13469.009-.26198.0836-.33486.2098-.1166.20195-.048.45856.154.57516l4.2044 2.4272c.20195.1166.45856.0479.57516-.154.1166-.20195.0479-.45804-.154-.57464l-4.2049-2.4278c-.0757-.0437-.15897-.0614-.23978-.0558zm46.727 0c-.0808-.006-.16405.012-.23978.0558l-4.2049 2.4278c-.20195.1166-.27059.37269-.15399.57464s.37321.2706.57516.154l4.2044-2.4272c.20195-.1166.27111-.37321.15452-.57516-.0729-.12622-.2007-.20039-.33538-.2098zm-47.939 2.5063c-.16403-.004-.32149.0899-.39274.24959-.095.21298-8e-5.46053.2129.55552l1.8655.83199c.21298.095.46105 7e-5.55604-.2129.095-.21298-.00045-.46053-.21342-.55552l-1.865-.83199c-.0532-.0238-.10863-.0356-.1633-.0367zm49.158.0171c-.0547.001-.11003.013-.1633.0367l-1.8655.83044c-.21304.0949-.30826.343-.21342.55604.0949.21304.34248.30826.55552.21342l1.866-.83096c.21303-.0948.30775-.34248.21291-.55552-.0711-.15978-.2282-.25337-.39223-.25011zm-50.237 2.6019c-.16349.0137-.31014.12308-.36432.28938-.0722.22172.048.45847.26975.53072l4.6163 1.5038c.22171.0722.45846-.0481.53071-.26976.0722-.22172-.048-.45796-.26975-.5302l-4.6162-1.5043c-.0554-.0181-.11191-.0242-.1664-.0196zm51.315.0181c-.0545-.005-.11043.001-.16588.0196l-4.6173 1.5007c-.22177.0721-.34235.30895-.27026.53072.0721.22177.30842.34184.5302.26975l4.6173-1.5007c.22178-.0721.34234-.30895.27026-.53072-.0541-.16633-.20085-.27552-.36432-.28939zm-51.987 2.7316c-.1961-.002-.37203.13424-.41445.33383-.0485.2281.0959.4507.32401.49919l1.9978.42427c.22809.0485.4507-.0959.49919-.32401.0485-.22811-.0959-.45072-.32401-.4992l-1.9978-.42478c-.0285-.006-.0567-.009-.0847-.009zm52.655.004v.00051c-.028.00023-.0562.004-.0847.009l-1.9978.42426c-.2281.0485-.37297.27109-.32452.4992.0485.2281.27108.37297.49919.32452l1.9978-.42426c.2281-.0485.37298-.27108.32453-.49919-.0424-.19959-.21837-.33549-.41445-.33383zm-53.164 2.7621c-.1952.0187-.35579.17174-.37723.37466-.0245.2319.14223.43852.37413.46302l4.8281.51056c.2319.0245.43852-.14274.46302-.37465.0245-.2319-.14274-.43852-.37465-.46302l-4.8281-.51057c-.029-.003-.0574-.003-.0853 0zm53.676.0362c-.0279-.003-.0568-.003-.0858.00051l-4.8286.50385c-.23194.0242-.39935.23057-.37518.4625.0242.23194.23057.39887.46251.37466l4.8286-.50385c.23194-.0242.39936-.23056.37518-.4625-.0212-.20294-.18155-.35619-.37673-.37517zm-53.758 2.7947c-.2332 0-.42117.18796-.42117.42116 0 .23319.18797.42065.42117.42065h2.0422c.23319 0 .42064-.18746.42064-.42065 0-.2332-.18745-.42116-.42064-.42116zm51.793 0c-.23319 0-.42065.18796-.42065.42116 1e-5.23319.18746.42065.42065.42065h2.0422c.23319 0 .42116-.18746.42116-.42065 0-.2332-.18797-.42116-.42116-.42116zm-46.803 2.2944c-.0279-.003-.0563-.003-.0853.00052l-4.8292.50384c-.23194.0242-.39884.23058-.37466.46251.0242.23194.23058.39939.46251.37517l4.8286-.50436c.23194-.0242.39935-.23005.37517-.46199-.0212-.20294-.18205-.35672-.37723-.37569zm43.853.03c-.19521.0187-.3558.17174-.37723.37466-.0245.2319.14223.43852.37413.46302l4.8286.51056c.23191.0245.43799-.14275.4625-.37465.0245-.2319-.14224-.43801-.37414-.46251l-4.8281-.51056c-.029-.003-.0579-.003-.0858-.00052zm-46.26 2.8432v.00052c-.028.00024-.0563.003-.0848.009l-1.9978.42426c-.22811.0485-.37245.27161-.32401.49972.0485.22811.27108.37246.49919.32401l1.9978-.42427c.2281-.0485.37246-.27109.32401-.49919-.0424-.1996-.21835-.33548-.41444-.33383zm48.669.005c-.19609-.002-.37151.13372-.41393.33331-.0485.22811.0959.45072.32401.4992l1.9978.42478c.22809.0485.45072-.0964.4992-.32453.0485-.2281-.0965-.45071-.32453-.49919l-1.9973-.42427c-.0285-.006-.0573-.009-.0853-.009zm-45.305 1.6578c-.0545-.005-.11043.00072-.16588.0191l-4.6173 1.5012c-.22178.0721-.34236.30843-.27027.5302.0721.22178.30843.34235.53021.27027l4.6173-1.5007c.22178-.0721.34236-.30895.27027-.53072-.0541-.16633-.20084-.27552-.36432-.28939zm41.937.015c-.16348.0137-.31013.12258-.36431.28887-.0722.22173.048.45847.26975.53072l4.6162 1.5043c.22172.0722.45848-.0481.53072-.26975.0723-.22172-.048-.45847-.26975-.53072l-4.6163-1.5043c-.0554-.0181-.1119-.0237-.1664-.0191zm-43.699 3.2722c-.0547.001-.11003.013-.16329.0367l-1.866.83096c-.21304.0948-.30826.34248-.21342.55552.0949.21304.343.30826.55604.21342l1.8655-.83096c.21303-.0948.30827-.34248.21343-.55552-.0711-.15978-.2282-.25337-.39223-.25011zm45.459.016c-.16403-.004-.32149.0899-.39274.2496-.095.21296-7e-5.46104.2129.55603l1.8655.83199c.21297.095.46053 7e-5.55552-.2129.095-.21297 7e-5-.46105-.2129-.55604l-1.865-.83199c-.0532-.0238-.10862-.0356-.1633-.0367zm-41.826.91209c-.0808-.006-.16456.012-.2403.0558l-4.2044 2.4278c-.20195.1166-.2706.37321-.154.57516s.37269.27059.57464.15399l4.2049-2.4278c.20195-.1166.27059-.37321.154-.57516-.0729-.12622-.20017-.20039-.33486-.2098zm38.2 0c-.13469.009-.2625.0836-.33538.2098-.1166.20195-.048.45856.15399.57516l4.2049 2.4278c.20196.1166.45855.048.57516-.15399.11659-.20195.0474-.45856-.15452-.57516l-4.2044-2.4278c-.0757-.0437-.15897-.0614-.23978-.0558zm-39.249 3.5626c-.081.003-.16228.0292-.23307.0806l-1.6526 1.1994c-.18875.13694-.23043.39881-.0935.58756.13695.18875.39881.23053.58756.0935l1.6531-1.1994c.18877-.13693.23044-.39881.0935-.58756-.0856-.11797-.22007-.17877-.35501-.17415zm40.287.0139v.00052c-.13494-.005-.26935.0558-.35502.17363-.13708.18865-.0957.45101.093.58808l1.6526 1.2004c.18866.13707.45049.0952.58756-.0935.13707-.18866.0956-.45049-.093-.58756l-1.6521-1.2004c-.0707-.0514-.1521-.0782-.23306-.0811zm-3.7434.1571c-.10745.006-.21293.0529-.29094.13953-.15603.17332-.14226.43826.031.59428l3.6086 3.2484c.17332.15605.43878.14176.5948-.0315.15603-.17331.14174-.43827-.0315-.59428l-3.6086-3.2484c-.0867-.078-.19589-.11364-.30334-.108zm-29.375 3.0835c-.13493-.005-.26928.0557-.35502.17364l-2.8562 3.9258c-.13719.18858-.096.4509.0925.58808.18857.13719.4509.0961.58808-.0925l2.8562-3.9264c.13718-.18856.096-.45088-.0925-.58807-.0707-.0514-.1521-.0778-.23306-.0806zm25.936.0176c-.081.003-.16227.0292-.23306.0806-.18875.13694-.23041.3988-.0935.58756l2.851 3.93c.13693.18876.39931.23044.58807.0935.18876-.13693.23043-.3988.0935-.58756l-2.851-3.93c-.0856-.11797-.22008-.17876-.35502-.17415zm-29.623.60668c-.10745.006-.2124.0524-.29042.13901l-1.3668 1.5177c-.15605.1733-.14232.43876.031.5948.1733.15604.43876.14182.59479-.0315l1.3663-1.5177c.15606-.1733.14225-.43825-.031-.59428-.0867-.078-.19588-.11364-.30334-.10801zm33.331.002c-.10745-.006-.21669.03-.30333.108-.17334.15601-.18749.42096-.0315.59428l1.3663 1.5177c.15602.17333.42146.18758.59479.0315.17332-.15601.18707-.42146.031-.59479l-1.3663-1.5177c-.078-.0867-.18349-.13336-.29094-.13901zm-25.655 1.6836c-.16403-.004-.32097.0899-.39222.2496l-1.9782 4.4338c-.095.21298-7e-5.46103.2129.55604.21296.095.46104 5e-5.55604-.2129l1.9782-4.4338c.095-.21296 7e-5-.46104-.2129-.55604-.0532-.0238-.10914-.0356-.16382-.0367zm17.956.0119c-.0547.001-.11054.013-.16381.0367-.21297.0947-.30815.34244-.21342.55553l1.972 4.4364c.0947.21297.34243.30866.55552.21394.21298-.0947.30866-.34243.21394-.55552l-1.972-4.4369c-.071-.15973-.2282-.25326-.39223-.25012zm-21.432 1.3591c-.13468.009-.26201.0836-.33487.2098l-1.0211 1.7684c-.11659.20195-.048.45856.15399.57516.20195.1166.45805.0479.57464-.154l1.0216-1.7689c.11659-.20195.0474-.45804-.15451-.57464-.0757-.0437-.15896-.0614-.23978-.0558zm24.934 0c-.0808-.006-.16405.0121-.23978.0558-.20195.1166-.27059.37269-.15399.57464l1.0211 1.7689c.1166.20195.3727.27059.57465.154.20196-.1166.27059-.37321.15399-.57516l-1.0211-1.7684c-.0729-.12622-.20018-.2004-.33487-.2098zm-17.055.063c-.19609-.002-.37154.13423-.41393.33383l-1.0092 4.7491c-.0485.2281.0965.45075.32453.4992.22811.0485.45073-.0959.49919-.32401l1.0087-4.7496c.0485-.2281-.096-.45075-.32402-.4992-.0285-.006-.0573-.009-.0853-.009zm9.1602.003c-.028.00022-.0562.003-.0847.009-.22814.0483-.37333.27054-.32504.49868l1.0056 4.7501c.0483.22814.27105.37282.4992.32453.22814-.0483.37281-.27106.32453-.4992l-1.0056-4.7496c-.0423-.19963-.21784-.33535-.41393-.33383zm-4.5728.47904c-.23319 0-.42065.18796-.42065.42116v4.855c0 .23321.18746.42117.42065.42117.2332 0 .42116-.18796.42116-.42117v-4.855c0-.2332-.18796-.42116-.42116-.42116zm-7.7262 1.5689c-.16347.0139-.31026.12305-.36432.28938l-.63148 1.9425c-.0721.22178.0485.45862.27027.53072s.4581-.0486.5302-.27027l.63148-1.9425c.0721-.22178-.0485-.4581-.27027-.53021-.0554-.018-.11138-.0242-.16588-.0196zm15.45.001c-.0545-.005-.11096.00082-.1664.0191-.22178.0721-.34232.30893-.27027.53072l.63097 1.9425c.0721.22179.30894.34182.53072.26976.22177-.0721.34232-.30842.27026-.5302l-.63148-1.9425c-.0541-.16634-.20033-.2755-.3638-.28939zm-10.365 1.0816c-.1952.0188-.35644.17224-.37776.37517l-.21342 2.0314c-.0244.23192.14273.4381.37465.4625s.43862-.14273.46302-.37465l.21343-2.0314c.0244-.23192-.14276-.43811-.37466-.46251-.029-.003-.0574-.003-.0853-.00051zm5.2669.002c-.0279-.003-.0563-.003-.0853.00051-.23193.0242-.39939.23058-.37517.46251l.21239 2.0314c.0242.23193.23057.39887.46251.37465.23193-.0242.39887-.23057.37465-.4625l-.21187-2.0309c-.0212-.20295-.18205-.35672-.37724-.37568z" fill="#2bb673"/></svg>
