<svg viewBox="1 1 176 176" xmlns="http://www.w3.org/2000/svg"><path d="m88.814 1a88 88 0 00-68.516 33.008l28.988 50.207a40 40 0 0139.637-35.215 40 40 0 01.07617 0h78.383a88 88 0 00-78.383-48 88 88 0 00-.18555 0zm-73.648 40.117a88 88 0 00-14.166 47.883 88 88 0 0074.725 86.992l28.988-50.209a40 40 0 01-15.713 3.2168 40 40 0 01-34.641-20 40 40 0 01-.10352-.17969zm73.834 15.883a32 32 0 00-32 32 32 32 0 004.1562 15.771l.13086.22852a32 32 0 0027.713 16 32 32 0 0027.713-16 32 32 0 004.2871-16 32 32 0 00-32-32zm24 0a40 40 0 0116 32 40 40 0 01-5.3594 20l-.0703.12305a40 40 0 01-.13281.22656l-38.988 67.533a88 88 0 004.5508.11719 88 88 0 0088-88 88 88 0 00-6.0254-32z" fill="#2bb673"/></svg>
