<svg version="1.1" viewBox="0 0 64 64" xmlns="http://www.w3.org/2000/svg"><g transform="rotate(-15,32,32)"><circle cx="32" cy="32" r="32" fill="#2bb673"/><g fill="#fff" aria-label="!$#?"><path d="m8.2402 21.998v13.043q0 1.043-1.043 1.043-1.043 0-1.043-1.043 0-.48047-.035156-1.4297-.023437-.96094-.023437-1.4297 0-1.6992.023437-5.0859.035156-3.3984.035156-5.0977 0-1.043 1.043-1.043 1.043 0 1.043 1.043zm.011719 17.496q0 .42188-.33984.72656-.32812.31641-.75.31641-.46875 0-.9375-.60938-.45703-.57422-.45703-1.0547 0-.42188.32812-.72656.33984-.30469.77344-.30469.45703 0 .9375.60938.44531.57422.44531 1.043z"/><path d="m16.971 29.369v-4.207q-2.332.87891-2.332 2.7188 0 1.1367 2.332 1.4883zm2.0859 2.4727v6.0938q1.2422-.42188 2.0742-1.2422.92578-.9375.92578-2.0273 0-2.0391-3-2.8242zm0-11.25v1.9805h.04687q1.125 0 2.5664.38672 1.8867.50391 1.8867 1.2891 0 1.0312-1.043 1.0312-.46875 0-1.6523-.24609-1.1719-.25781-1.8047-.24609v4.7695q2.5898.23438 4.0547 1.6992 1.3359 1.3594 1.3359 3.2812 0 2.3555-1.6289 3.9023-1.4414 1.3594-3.7617 1.793v3.1172q0 .45703-.30469.75-.29297.30469-.75.30469-1.0312 0-1.0312-1.0312v-2.9883q-5.7188-.08203-5.7188-2.9648 0-1.0547.97266-1.0547.55078 0 1.0547.43359.75.64453 1.1367.84375.9375.46875 2.5547.53906v-6.6445h-.09375q-1.8164-.07031-3.1406-.89062-1.6406-1.0078-1.6406-2.8008 0-1.6055 1.5-3.0234 1.3828-1.3125 3.375-1.9102v-2.25q0-.45703.30469-.76172.31641-.30469.77344-.30469 1.0078 0 1.0078.99609z"/><path d="m33.189 33.002h5.8594l1.3242-4.8633h-5.7188zm-2.1914 0 1.4297-4.8633h-3.1289q-1.1133 0-1.1133-1.1719 0-.89062 1.7344-.89062h3.0938q.30469-1.3594.92578-3.7031.33984-1.0781 1.3711-1.0781.38672 0 .63281.31641.25781.30469.25781.67969 0 .46875-.30469 1.5469-.51562 1.8633-.59766 2.2383h5.6836q.39844-1.418 1.0898-3.7852.30469-.99609 1.1484-.99609.98438 0 .98438.91406 0 .79688-.97266 3.8672h2.2852q1.1953 0 1.1953.87891 0 1.2305-1.3242 1.2305-.17578 0-.55078-.02344-.36328-.02344-.53906-.02344h-1.7109l-1.2422 4.8633h2.3906q.85547 0 1.207.12891.60938.23438.60938.9375 0 1.0781-1.0195 1.0781h-3.7734l-1.0547 3.8086q-.31641 1.1367-1.3125 1.1367-.96094 0-.96094-.92578 0-.69141.38672-2.0156.53906-1.8398.57422-2.0039h-5.8594q-.35156 1.3711-1.2305 4.0312-.33984.83203-1.1484.83203-.9375 0-.9375-.92578 0-.45703.26953-1.3242.41016-1.3125.82031-2.6133h-2.2383q-.97266 0-.97266-1.1602 0-.45703.39844-.73828.33984-.24609.82031-.24609z"/><path d="m51.318 36.154q-.48047 0-.84375-.36328-.36328-.375-.36328-.84375 0-.80859 1.5-1.9922l2.8008-2.1094q1.5117-1.3008 1.5117-2.3789 0-1.3594-1.2773-2.5078-1.2305-1.1133-2.6133-1.1133-.73828 0-1.875.76172-1.1367.75-1.4062.75-.48047 0-.83203-.38672-.33984-.38672-.33984-.86719 0-.92578 1.793-1.8398 1.6055-.82031 2.6602-.82031 2.3555 0 4.2773 1.8398t1.9219 4.1836q0 1.7109-1.1016 3.0352-.65625.79688-2.4375 2.0625-1.793 1.3008-2.4961 2.1094-.41016.48047-.87891.48047zm-.64453 4.4531q-.51562 0-.9375-.35156-.41016-.33984-.41016-.83203 0-.72656.38672-1.3125.43359-.65625 1.1133-.65625 1.125 0 1.125 1.3828 0 .64453-.30469 1.1602-.375.60938-.97266.60938z"/></g></g></svg>
