<svg viewBox="0 0 201 57" xmlns="http://www.w3.org/2000/svg"><path d="m46.1 49.4h.176c0-.986-.355-2.44.882-2.65v4.94c0 .531.19 1.56-.178 2-.335.399-.626-.117-.678-.423-.161-.951-.0261-2.02-.0261-2.99h-.176l-.89.787-1.76-.424-4.59-.01c.138 1.53 1.45 3.3 3.17 2.53.937-.416 1.16-1.55 2.29-1.3-.965 3.02-5.51 3.04-6.26-.176-.318-1.38-.108-3.11.882-4.18 1.33-1.43 3.9-1.26 4.85.471.663-2.24 1.26-7.01.19-9.17-.4-.803-1.32-1.05-1.75-1.8-.394-.693-.0408-1.55-.515-2.23-.77-1.1-1.73-1.41-2.04-2.85-.821-3.84.229-7.95.235-11.8.0032-2.02-.52-3.98-.529-6-.0078-1.73.521-3.39.529-5.12.0088-1.83-.344-4.05.135-5.82.193-.718.592-1.37 1.28-1.71.791-.392 1.79-.196 2.64-.377 1.95-.414 5.76-2.62 6.74.497.805 2.56-.605 5.68-.554 8.29.0593 3.07.593 6.07.517 9.17-.058 2.37-.625 4.66-.52 7.06.0739 1.67.844 3.26.843 4.94-.0011 3.37-3.27 3.44-4.55 6-.616 1.23-.455 2.56-.545 3.88-.186 2.71-.444 5.8.192 8.47m20.6-49c1.94-.229 3.46.29 5.29.781 1.15.307 2.44.0276 3.53.519 1.72.777 3.92 3.92 4.48 5.71.474 1.52-.0591 2.89-.213 4.41-.121 1.19.321 4.75-.636 5.51-.842.667-1.98-.887-2.92-.887-1.72-7e-4-2.25 2.09-3.71 2.34-1.3.222-1.95-1.55-3.17-1.65-1.76-.142-3.91 1.67-3.58 3.51.214 1.18 1.35 2.63 2.69 2.31 1.06-.247 1.19-1.45 2.12-1.83 1.7-.688 3.58.003 5.28.0871 1.58.0774 3.03-.67 4.1 1.02.885 1.39-.279 2.91-.673 4.23-.438 1.47.0922 2.97-.453 4.41-.828 2.18-2.53 2.93-2.77 5.47-.117 1.23.661 5.06-1.1 5.37-.925.165-1.19-.78-1.22-1.49-.043-1.44.268-3.76-1.77-4.08-1.19-.188-3.43 1.27-3.88 2.32-.407.94-.392 2.32-1.59 2.68-.826.251-1.23-.606-1.35-1.27-.279-1.45-.483-4.06-2.35-4.39-1.71-.299-2.72 3.66-4.16 2.21-.962-.967-.804-3.12-1.56-4.35-3.6-5.86-5.56-10.9-4.89-17.8.178-1.86.299-3.93 1.15-5.64 1.38-2.76 3.6-4.52 5.93-6.42 2.54-2.07 4.18-2.68 7.41-3.06m54.3 0c3.55-.421 8.04-.0428 11.3 1.22 1.46.565 3.16 1.15 3.75 2.79.468 1.31-.139 3.17-.587 4.41-.331.919-.517 2.62-1.32 3.24-.499.388-.993.0286-1.27-.43-1.34-2.22-2.55-2.14-4.99-2.3-.928-.0587-2.66.0173-2.53 1.43.115 1.25 1.93 1.83 2.88 2.24 2.43 1.05 5.76 2.02 7.35 4.28.904 1.29.922 2.41 1.28 3.88 1 4.13.707 8.6-1.65 12.3-1.29 2.05-3.37 3.62-4.62 5.82-.923 1.62-1.01 3.14-1.13 4.94-.0404.585-.0705 1.57-.713 1.83-1.03.41-1.39-1.12-1.35-1.83.126-2.17.984-4.04-.0868-6.17-.463-.922-1.3-1.83-2.42-1.36-2.1.885-1.53 2.85-2.09 4.53-.559 1.68-1.6 2.69-1.61 4.59-.004.894.452 3.82-.897 3.97-.914.102-.896-1.08-.837-1.68.264-2.7.27-5.07 0-7.76-.155-1.55.213-3.22-.734-4.58-1.7-2.45-5.23-3.06-7.4-5-2.01-1.79-1.33-5.06-.969-7.35.113-.726-.0766-1.6.208-2.28.557-1.34 2.99-.923 4.1-.764 1.98.282 4.41.736 5.99 2.05 1.2.996 1.9 2.72 3.35 3.41.978.462 1.85-.25 2.17-1.18 1.17-3.45-3.63-5.06-6.05-5.67-2.06-.515-4.4-.815-6.17-2.05-3.47-2.43-3.77-7.4-1.97-11 .699-1.39 1.97-2.88 3.21-3.82 1.68-1.27 3.8-1.54 5.82-1.78m-35.8 47c.386-.294.767-.602 1.24-.758 4.34-1.45 3.35 4.92 3.35 7.28-2.17-.722 1.09-6.86-2.65-6.65-2.16.125-2.11 3.48-2.12 5.06-.000529.267.0533 1.8-.609 1.38-.598-.378-.231-2.18-.305-2.79-.312-2.61-.0984-5.37-.757-7.94-.509-1.98-.35-3.68-.679-5.64-.426-2.55-1.42-4.54-1.35-7.23.103-4.2.361-8.51.545-12.7.0602-1.37.436-2.68.304-4.06-.164-1.72-.301-3.56-.116-5.29.0947-.885.485-1.75.432-2.65-.069-1.15-.828-3.01.143-3.98.785-.785 2.14-.302 3.1-.26 2.26.0992 5.19-1.52 6.43 1.07 1.15 2.41-.495 5.76-.135 8.29.122.859-.114 2.49.954 2.85.67.227 1.43-.285 2.1-.346.525-.0483 1.07.246 1.58.145 1.2-.24.492-2.05.607-2.83.145-.98.769-1.81.916-2.82.231-1.59-1.28-5.48.784-6.24.721-.268 1.54.132 2.29.0106 2.04-.331 4.76-1.79 6.4.444.664.903.481 2.27.481 3.32 0 2.55-.239 5.05-.307 7.58-.0513 1.92.316 3.88.307 5.82-.0104 2.16-.367 4.18-.146 6.35.263 2.58 1.24 5.13.795 7.76-.371 2.21-2.2 3.36-2.97 5.29-.506 1.28-.642 4.09-.448 5.47.0931.661.66 1.98.0176 2.52-1.05.888-1.11-1.57-1.14-1.99-.0757-1.02-.689-1.84-.828-2.82-.232-1.65.902-3.46-.485-4.87-1.7-1.72-4.67-.308-5.29-3.6-.387-2.05-.602-4.44-.612-6.53-.003-.61.0776-1.97-.584-2.31-.516-.263-1.02.419-1.53.438-1.01.0374-1.79-1.35-2.63-.052-1.34 2.09-.0783 6-.799 8.45-.515 1.75-1.82 2.84-2.63 4.41-.47.915-.402 2.13-.975 2.97-.694 1.02-1.81 1.44-2.3 2.68-.582 1.49-.374 3.2-.374 4.76m-61.6 5.47-.176 1.06c-1.05-.176-.882-1.05-.882-1.94v-6c0-.916-.224-1.93.882-2.12l.176 3.7c.823-.733 1.55-1.03 2.65-1.06-.0975-2.27-1.43-3.49-2.26-5.47-.42-1.01-.227-2.22-.79-3.16-.622-1.04-1.8-1.44-2.2-2.66-.286-.866-.675-4.53-2.33-3.72-1.23.6-1.32 2.39-2.22 3.3-.79.802-1.98.766-2.9 1.32-1.33.799-1.36 2.48-1.26 3.87.0861 1.21-.261 3.63 1.26 3.88-.213 2.61-1.18 5.25-1.89 7.76-.175.618-.331 2.32-1.27 2.21-.741-.0887-.821-1.48-.974-2.03-.598-2.15-1.24-4.34-1.69-6.53h-.176c-.301 2.23-1.09 4.53-1.69 6.7-.155.559-.269 1.96-1.12 1.86-.793-.0949-.902-1.62-1.07-2.21-.711-2.49-1.42-5.05-1.94-7.58 1.16-.264 1.21.861 1.43 1.76.534 2.14 1.27 4.34 1.57 6.53h.176c.311-2.1 1.02-4.32 1.65-6.35.35-1.13.324-2.07 1.7-2.12l2.12 8.47c1.35-2.68.443-4.35.075-7.06-.234-1.72.261-3.62-.214-5.29-.917-3.23-3.29-6.07-4.54-9.17-.893-2.21-1.04-4.74-1.57-7.06-.277-1.23-.965-2.31-1.24-3.53-.571-2.49-.751-5.23-1.01-7.76-.227-2.26-2.53-4.22-1.86-6.53.198-.674.601-1.2 1.18-1.59 1.69-1.14 5.98-3.73 7.93-2.35 1.92 1.36 2.07 4.5 2.52 6.59.199.909.62 1.71.755 2.65.102.707-.206 3.24.811 3.42.613.109.76-.905.854-1.3.294-1.23.98-3.16 2.12-3.83 1.84-1.09 4.58-.122 5.69 1.54.417.625 1.36 2.96 2.41 2.3 1.23-.769 1.1-3 1.27-4.24.153-1.12.922-1.94 1.24-3 .317-1.06.156-2.14.656-3.17.843-1.74 3.16-1.74 4.78-1.22.941.303 1.8.829 2.65 1.33 1.12.675 2.89 1.31 3.27 2.71.687 2.51-1.79 5.53-2.3 7.94-.235 1.1.0346 2.25-.174 3.35-.22 1.17-1.03 2.05-1.34 3.18-.938 3.37-1.42 6.89-2.36 10.2-.692 2.46-2.07 4.73-2.6 7.23-.591 2.79-1.25 6.32-1.05 9.17.124 1.8 1.29 2.96.744 4.94-.716 2.6-3.83 2.9-5.48 1.06m150-19.4h-1.59v-4.59c-1.97 1.67-2.81 3.72-5.47 4.64-1.23.425-2.42.476-3.7.476-13-.005-13.1-23.7-.176-24 1.46-.036 2.85.119 4.23.622 2.6.948 3.33 2.9 5.12 4.67v-13.8l1.41.283.182 2.01v29.6m14.1-23.4c4.96-.644 9.37 2.22 10.8 7 .289.995 1.25 4.29.247 5.08-.804.637-3.14.208-4.13.208h-10.1c-.923 0-2.88-.48-3.65.0317-.57.379-.298 1.18-.245 1.73.146 1.59.647 3.24 1.52 4.59 2.61 4.02 8.27 5.21 12.1 2.06 1.65-1.37 1.78-3.04 2.88-4.65.275-.401 1.03-.563 1.42-.228.527.449-.122 1.78-.3 2.29-.813 2.32-2.58 4.22-4.88 5.1-1.45.556-2.87.717-4.41.717-13.1-.00088-13.7-22.3-1.23-23.9m-25 1.44c-6.75.908-8.76 7.9-7.47 13.9.933 4.3 4.42 7.75 9.06 7.18 6.99-.859 9.03-9.52 6.87-15.3-1.31-3.48-4.53-6.27-8.46-5.75m17.8 9.1c3.33.984 7.99.176 11.5.176 1.73 0 3.81.314 5.47-.176-.432-2.32-.771-4.48-2.35-6.35-2.94-3.49-8.59-3.65-11.7-.338-1.81 1.92-2.26 4.24-2.85 6.69m-34.7 8.29v4.59h-2.29c0-.907-.47-3.81.283-4.4.462-.366 1.46-.181 2.01-.181m-51.3 14.8v.706c-1.63.255-1.82 2.23 0 2.29v.706c-2.32.0757-1.41 4.79-1.41 6.53h-.706c0-1.93.856-5.92-1.23-6.7v-.353c2.01-.755.666-3.15 3.35-3.18m-47.4.176v1.23h-.882v-1.23h.882m34.7 0v1.23h-.882c.0242-.737.113-1.11.882-1.23m30.7 0v3.53c3.09-1.7 4.94-.42 4.94 3 0 .658.353 2.92-.273 3.32-.725.459-.609-1.46-.609-1.73-.00017-1.5.461-5.16-2.12-4.66-2.18.42-1.94 2.99-1.94 4.66 0 .342.177 1.91-.499 1.78-.636-.126-.383-1.85-.383-2.31v-5.64c0-.89-.169-1.76.882-1.94m11.8 0v3.53c3.04-1.26 4.94-.852 4.94 2.82 0 .681.369 3.09-.273 3.5-.698.442-.609-1.29-.609-1.56-.00053-1.16.356-3.04-.307-4.05-1.85-2.8-3.75 1.09-3.75 2.81v3h-.706v-10.1h.706m8.11 1.23c-1.84-.146-.07-2.13 0 0m37.6-1.23v1.23h-.882c.0247-.737.113-1.11.882-1.23m10.9 0v3.53c3.14-1.54 4.94-.558 4.94 3 0 .658.353 2.92-.272 3.32-.698.442-.61-1.29-.61-1.56 0-1.15.36-3.05-.307-4.05-1.86-2.78-3.75 1.09-3.75 2.81v3c-1.05-.176-.882-1.05-.882-1.94v-6c0-.916-.224-1.93.882-2.12m-131 .706c.388 1.31.145 1.82 1.59 2.29v.353c-.408.134-.974.198-1.23.585-.742 1.12-.567 5.39 1.05 5.41l.176.706c-3.31.779-2.29-4.5-2.29-6.53h-.882v-.706h.882c.000176-.861-.129-1.66.706-2.12m146 2.12h1.23v.706h-1.23c0 1.42-.771 5.88 1.23 5.82l.176.176c-.453.822-1.73.981-2.16-.0192-.631-1.47.0952-3.53-.157-5.09-.115-.716-.817-.93-1.03-1.59h1.06c0-2.21.882-2.21.882 0m-181 3.88c.0736 1.58 1.45 3.26 3.17 2.48.848-.386 1.17-1.27 2.12-1.42-.304 2.8-4.3 3.31-5.71 1.05-1.65-2.65.404-7.43 3.95-5.99.885.359 2.84 2.76 1.66 3.7-.545.433-1.88.181-2.54.181h-2.65m21-1.94c-1.3.189-2.73-2.74-4.12-.682-.526.776.298 1.38.949 1.66 1.33.563 3.65.651 3.29 2.73-.517 2.93-5.34 2-5.58-.705h.882c.302.884.945 1.58 1.94 1.63.748.0333 1.97-.511 1.77-1.44-.456-2.14-4.68-.477-4.39-3.54.291-3.07 4.56-1.75 5.27.353m17.6 1.94c.0736 1.58 1.45 3.26 3.17 2.5.86-.38 1.16-1.29 2.12-1.44-.309 2.79-4.32 3.33-5.73 1.04-1.63-2.66.413-7.42 3.96-5.98.896.363 2.86 2.74 1.66 3.7-.545.433-1.88.181-2.54.181h-2.65m12.2 3.35c0-1.63.415-3.94-.202-5.47-.676-1.67-2.67-1.35-3.5 0-.866 1.41.453 4-.532 5.17-.63.751-.704-1.05-.704-1.29v-5.64h.882v.706c3.1-1.86 4.93-.152 4.94 3.17.0018 1.06.475 3.12-.882 3.35m7.41-3.35c.33 1.58 1.49 3.31 3.35 2.47.862-.387 1.14-1.26 2.12-1.42-.503 2.78-4.53 3.43-5.85.881-.367-.708-.508-1.5-.497-2.29.0088-.624.139-1.2.407-1.76.869-1.83 3.42-2.74 5.02-1.2.527.505 1.61 2.48.808 3.13-.564.455-2.03.181-2.72.181h-2.65m28 2.65.882.176v.353c-.864.253-1.4.156-1.76-.706-1.63 1.21-6.47 1.33-4.84-1.93.927-1.85 3.49-.593 4.55-2 1.07-1.42-1.57-2.11-2.52-1.61-.82.425-.951 1.23-1.96 1.31.523-2.17 3.93-3.47 5.32-1.23.846 1.37.328 4.08.328 5.64m8.11-4.23c-1.46-.238-1.91-2.35-3.7-1.49-2.2 1.05-2.15 5.33.528 5.74 1.66.255 1.93-1.67 3.35-1.78-.426 2.39-3.35 3.56-5.26 1.87-.955-.847-1.16-2.24-1.08-3.46.255-3.53 5.79-4.92 6.16-.882m25.8 4.94h-.706v-7.23h.706v.706c3.14-1.54 4.94-.558 4.94 3 0 .658.353 2.92-.273 3.32-.698.442-.609-1.29-.609-1.56-.00053-1.15.359-3.05-.307-4.05-1.87-2.8-3.75 1.1-3.75 2.81v3m12.7-6.35v-.882h.706c0 2.33.816 6.59-.368 8.64-1.22 2.12-5.45 2.12-5.98-.528.968.0762 1.4.878 2.29 1.13 1.98.565 3.16-1.14 3.18-2.9-.489.401-.97.741-1.59.919-4.79 1.38-5.77-7.52-.882-7.44 1.08.0175 1.71.652 2.65 1.05m3.53 3c.0806 1.55 1.46 3.27 3.17 2.53.944-.407 1.16-1.55 2.29-1.29-1.14 2.73-5.27 3.27-6.21 0-.205-.711-.188-1.56-.108-2.29.27-2.48 3.39-4.16 5.34-2.2.545.545 1.53 2.41.692 3.08-.546.432-1.88.181-2.54.181h-2.65m26.6-1.76c-1.36.258-1.71-1.67-3.18-1.51-4.44.47-1.41 8.54 1.72 5.2.296-.316.434-.64.57-1.04h.882c-.402 3.9-5.72 3.11-6.27-.353-.656-4.09 4.77-6.68 6.27-2.29m14.8-.176c-1.25.186-2.76-2.77-4.09-.682-.492.767.259 1.38.919 1.64 1.38.552 3.66.654 3.31 2.74-.513 3.03-5.22 1.87-5.6-.705 1.03.0822 1.12.921 1.95 1.39.859.484 3.24.0257 2.6-1.37-.811-1.77-4.94-.584-4.3-3.55.603-2.76 4.69-1.7 5.22.528m-111-1.94v7.23h-.706v-7.23h.706m49.7 0c1.54.257.882 4.04.882 5.29 0 .459.142 1.27-.178 1.65-.63.751-.704-1.05-.704-1.29v-5.64m29.3 5.82h.176l1.41-5.82c2.25.0748 1.53 4.28 2.82 5.64.139-1.39.945-5.4 2.47-5.64-.326 1.92-1.18 3.79-1.76 5.64-.152.487-.362 1.8-1.17 1.47-.492-.198-.556-1.03-.676-1.47-.372-1.35-.603-2.76-1.16-4.06-.538 1.25-.641 4.74-1.81 5.46-.88.541-1.13-.864-1.3-1.4-.592-1.82-1.37-3.75-1.65-5.64 1.72.281 2.09 4.37 2.65 5.82m9.17-5.82v7.23c-1.4-.233-1.19-5.43-.826-6.68.127-.442.425-.488.826-.555m-155 3.18h2.12c.575 0 1.71.211 2.18-.181.69-.57-.278-1.79-.781-2.11-1.75-1.11-3.44.556-3.52 2.29m12.9-.882h-.176c-.000529.666-.613 5.06-1.91 2.96-.724-1.17-.0325-3.41-.0316-4.72-2.57.233-3.57 3.93-1.57 5.57 1.61 1.32 3.61-.0476 3.83-1.86.081-.656-.0243-1.3-.144-1.94m12.3-1.65c-.605.188-2.29 1.63-1.47 2.35.549.478 3.06.327 3.74.125.805-.24.446-1.21.0873-1.7-.541-.729-1.48-1.05-2.35-.776m15.2-.0143c-.64.181-2.37 1.62-1.48 2.36.571.475 3.05.332 3.75.125.783-.234.426-1.22.0787-1.69-.529-.72-1.49-1.04-2.35-.799m22.6 2.37c-.254-1.7-1.77-3.19-3.51-2.08-.495.315-1.47 1.51-.79 2.07.527.435 1.89.182 2.54.181.61-.001 1.17-.0351 1.76-.176m66.7-2.35c-2.94.908-2.13 6.82 1.23 5.89 2.96-.82 2.08-6.92-1.23-5.89m8.47 0c-.623.192-2.35 1.6-1.47 2.35.555.477 3.06.329 3.74.125.783-.234.426-1.22.0787-1.69-.528-.719-1.49-1.05-2.35-.785m-52.7 2.88c-.653.0517-1.29.177-1.94.278-.406.0632-.847.0767-1.23.232-.846.342-1.22 1.53-.476 2.19 1.02.9 2.98.234 3.47-.937.229-.55.178-1.18.178-1.76m99.8 2.47v1.23c-1.22-.0947-1.22-1.14 0-1.23z" fill="#2bb673"/></svg>
